<?xml version="1.0" encoding="utf-8"?><svg width="761" height="369" viewBox="0 0 761 369" xmlns="http://www.w3.org/2000/svg" xmlns:xlink="http://www.w3.org/1999/xlink"><svg width="144" height="48" viewBox="-4 -4 144 48" id="button_play" x="564" y="213" xmlns="http://www.w3.org/2000/svg"><g fill="none" fill-rule="evenodd"><rect width="135" height="39" x=".5" y=".5" stroke="red" rx="8"/><path fill="red" fill-rule="nonzero" d="M27.928 20.8v-4h2.096v-1.376h-2.096V12H26.36v8.8h1.568zm-4.032-1.024V12.72h-1.552v2.384h-3.792V12.72H17v7.056h6.896zm-1.552-1.344h-3.792v-2h3.792v2zm1.2 8.736c2.784 0 4.448-1.216 4.448-2.768v-.64c0-1.552-1.664-2.768-4.448-2.768-2.784 0-4.448 1.216-4.448 2.768v.64c0 1.552 1.664 2.768 4.448 2.768zm0-1.296c-1.776 0-2.896-.784-2.896-1.568v-.448c0-.784 1.12-1.568 2.896-1.568 1.776 0 2.896.784 2.896 1.568v.448c0 .784-1.12 1.568-2.896 1.568zm18.216-7.808l.608-1.296a33.772 33.772 0 01-3.488-1.488c-1.168-.592-1.488-1.008-1.488-2.096v-.976h-1.568v.976c0 1.088-.352 1.488-1.488 2.096-.768.416-1.968.928-3.472 1.488l.608 1.296a43.493 43.493 0 003.104-1.312c1.408-.672 1.92-1.04 2.032-1.36h.016c.112.304.624.688 2.032 1.36.8.384 1.984.88 3.104 1.312zm1.616 2.384v-1.344h-5.968v-1.872h-1.6v1.872H29.84v1.344h13.536zm-6.768 6.72c2.832 0 4.608-1.168 4.608-2.656v-.544c0-1.52-1.792-2.656-4.608-2.656S32 22.432 32 23.968v.544c0 1.504 1.792 2.656 4.608 2.656zm0-1.296c-1.808 0-3.04-.688-3.04-1.456v-.352c0-.768 1.232-1.456 3.04-1.456s3.04.688 3.04 1.456v.352c0 .768-1.232 1.456-3.04 1.456zm21.6-7.728l.576-1.28c-1.248-.4-2.208-.752-3.056-1.12-1.104-.48-1.776-.976-1.776-1.664v-.224h4.224v-1.312H48.16v1.312h4.208v.224c0 .688-.704 1.232-1.776 1.68-.864.352-1.792.704-3.056 1.104l.592 1.28a62.67 62.67 0 003.104-1.152c.672-.288 1.76-.816 1.92-1.152h.016c.16.336 1.28.864 1.968 1.152 1.024.416 2.016.784 3.072 1.152zm-5.04 9.024c2.832 0 4.608-1.136 4.608-2.624V24c0-1.36-1.456-2.4-3.808-2.592v-1.296h5.968v-1.344H46.4v1.344h5.968v1.296C50.016 21.6 48.56 22.624 48.56 24v.544c0 1.504 1.792 2.624 4.608 2.624zm0-1.296c-1.808 0-3.04-.656-3.04-1.424v-.352c0-.768 1.232-1.424 3.04-1.424s3.04.656 3.04 1.424v.352c0 .768-1.232 1.424-3.04 1.424zm19.016-3.344V12h-1.568v10.528h1.568zm-7.904-2.352c2.496 0 3.696-1.92 3.696-3.376v-.832c0-1.456-1.2-3.376-3.696-3.376-2.496 0-3.696 1.92-3.696 3.376v.832c0 1.456 1.2 3.376 3.696 3.376zm0-1.376c-1.52 0-2.176-1.088-2.176-2.064v-.704c0-.976.64-2.064 2.176-2.064s2.176 1.088 2.176 2.064v.704c0 .976-.64 2.064-2.176 2.064zm8.208 7.792v-1.376h-7.936v-3.52h-1.584v4.896h9.52zm5.632-5.936a59.699 59.699 0 003.28-1.952c1.072-.688 1.728-1.248 1.888-1.616h.016c.176.368.832.928 1.872 1.584.96.608 2.128 1.28 3.312 1.952l.768-1.232c-1.264-.688-2.192-1.216-3.2-1.872-1.728-1.136-1.968-1.792-1.968-3.36v-1.248h-1.6v1.248c0 1.568-.336 2.256-1.792 3.248-1.072.72-2.08 1.296-3.36 2l.784 1.248zm11.936 4.128V23.44h-3.84v-2.912h-1.568v2.912h-2.72v-2.912H80.36v2.912h-3.84v1.344h13.536zm16.56 0V23.44h-5.984v-2.784h4.08v-7.584h-1.568V15.6h-6.592v-2.512h-1.568v7.568h4.064v2.784H93.08v1.344h13.536zm-3.472-5.472h-6.592v-2.368h6.592v2.368zm15.72 7.44V12h-1.584v14.752h1.584zm-10.768-3.216c5.84-3.536 6.064-4.432 6.064-7.344V13.36h-6.608v1.36h5.04v1.456c0 2.272-.224 3.104-5.328 6.096l.832 1.264z"/></g></svg><svg width="276" height="64" viewBox="-4 -4 276 64" id="button_play_pc" x="288" y="213" xmlns="http://www.w3.org/2000/svg"><g fill="none" fill-rule="evenodd"><rect width="267" height="55" x=".5" y=".5" stroke="red" rx="8"/><path fill="red" fill-rule="nonzero" d="M83.927 28.56v-5.12h2.78v-2.08h-2.78v-4.08h-2.46v11.28h2.46zm-5.18-1.4v-9.34h-2.4v3.04h-3.82v-3.04h-2.44v9.34h8.66zm-2.4-1.94h-3.82v-2.4h3.82v2.4zm1.74 10.74c4.04 0 6.2-1.7 6.2-3.7s-2.16-3.62-6.2-3.62-6.16 1.62-6.16 3.62 2.12 3.7 6.16 3.7zm0-1.96c-2.68 0-3.62-.92-3.62-1.74s.94-1.7 3.62-1.7c2.66 0 3.64.88 3.64 1.7s-.98 1.74-3.64 1.74zm10.346-9.22c2.26-.4 4.7-1.66 6.28-3.36 1.6 1.54 3.82 2.74 6.46 3.22l1.32-1.94c-2.64-.4-5.18-1.5-6.52-3.14.32-.72.48-1.48.44-2.28h-2.54c.04 2.76-2.66 4.86-6.72 5.64l1.28 1.86zm15.26 3.14v-2.08h-7.48v-2.3h-2.5v2.3h-7.54v2.08h17.52zm-8.76 8.04c4.12 0 6.36-1.48 6.36-3.58 0-2.12-2.24-3.54-6.36-3.54s-6.36 1.42-6.36 3.54c0 2.1 2.2 3.58 6.36 3.58zm0-1.96c-2.82 0-3.76-.8-3.76-1.62 0-.82.94-1.58 3.76-1.58s3.76.76 3.76 1.58c0 .82-.94 1.62-3.76 1.62zm14.134-9.38c2.62-.36 5.06-1.06 7.04-1.94 1.96.9 4.08 1.48 6.36 1.9l.86-1.78c-1.84-.26-3.6-.66-5.16-1.22 1.44-.92 2.44-1.98 2.8-3.08.16-.48.02-.74-.42-.74a160.59 160.59 0 01-3.443.04h-7.457v1.98h3.5c1.42 0 2.84-.04 4.26-.1v.02c-1 1-4 2.38-9.26 3.1l.92 1.82zm6.52 11.34c4.12 0 6.36-1.44 6.36-3.56 0-1.9-1.8-3.22-5.16-3.46v-1.6h7.56v-2.02h-17.52v2.02h7.44v1.62c-3.26.26-5.04 1.56-5.04 3.44 0 2.12 2.2 3.56 6.36 3.56zm0-1.92c-2.82 0-3.76-.8-3.76-1.64 0-.82.94-1.6 3.76-1.6s3.76.78 3.76 1.6c0 .84-.94 1.64-3.76 1.64zm23.826-3.58V17.28h-2.46v13.18h2.46zm-9.88-2.88c2.9 0 4.98-2.08 4.98-4.76 0-2.76-2.08-4.84-4.98-4.84-2.86 0-4.9 2.08-4.9 4.84 0 2.68 2 4.76 4.9 4.76zm.04-2.12c-1.48 0-2.38-1.02-2.38-2.64 0-1.72.92-2.76 2.38-2.76 1.44 0 2.4 1.04 2.4 2.76 0 1.62-.96 2.64-2.4 2.64zm10.22 10v-2.1h-9.66v-3.62h-2.46v5.72h12.12zm19.754-7.26l1.56-1.8c-3.1-1-5.18-2.78-6.76-5.5.2-.86.3-1.78.24-2.76h-2.48c.1 4.48-2.26 6.72-6.54 8.22l1.62 1.8c2.56-.92 4.82-2.56 6.16-4.8 1.5 2.24 3.64 3.98 6.2 4.84zm2.26 5.02v-2.06h-4.62v-3.48h-2.48v3.48h-2.82v-3.48h-2.48v3.48h-4.76v2.06h17.16zm20.673-.08v-2.06h-7.32v-3.04h4.68v-9.76h-2.48v2.98h-6.94v-2.98h-2.46v9.76h4.68v3.04h-7.32v2.06h17.16zm-5.1-7.12h-6.98v-2.7h6.98v2.7zm20.367 9.8V17.28h-2.48v18.54h2.48zm-13.72-3.78c5.88-3.14 8.18-7.46 8.54-13.24-1.758.031-3.31.038-4.798.04h-4.442v2.12h2.12c1.48 0 2.96-.02 4.44-.06-.42 3.46-2.52 7.02-7.52 9.4l1.66 1.74z"/></g></svg><svg width="244" height="25" viewBox="-4 -4 244 25" id="button_recommend" x="512" y="77" xmlns="http://www.w3.org/2000/svg"><path fill="#FFF" d="M11.22 16.133V9.214h.918v6.919H15.3V.34h-3.162v5.797h-.918V.34H8.194v15.793h3.026zM0 15.623l7.769-.85v-3.077l-4.352.476V.765H0v14.858zm28.094.51V.34h-2.975v5.916h-1.224c.119-.969.187-2.023.187-3.196V.85h-7.667v3.06h4.505c0 3.196-.646 7.48-4.59 8.704v3.179c3.162-.646 5.712-2.448 6.953-6.477h1.836v6.817h2.975zm3.706 0V.34h-3.043v15.793H31.8zm20.42-7.089V6.069h1.768V3.094H52.22V.34h-3.74v8.704h3.74zm-5.542-.578V.595H37.6v7.871h9.078zm-3.519-2.567h-1.972V3.162h1.972v2.737zm9.401 10.234v-2.618c-3.91.051-4.93-.629-5.066-1.513h4.896V9.469H38.144v2.533h4.879c-.085.884-1.173 1.564-5.049 1.513v2.618c3.808 0 6.086-.646 7.293-2.04 1.173 1.394 3.485 2.04 7.293 2.04zM68.89 6.069v-2.55H58.01V.255h-3.655v5.814H68.89zm.51 3.978V7.242H53.76v2.805H69.4zm-.34 6.086v-2.72H58.095v-2.584h-3.74v5.304H69.06zm9.2-.255V8.143l2.737 7.735h3.4V.595h-3.4v7.803L78.26.595h-3.4v15.283h3.4zm11.723.34c2.601 0 4.726-.935 4.726-3.536V3.791c0-2.601-2.125-3.536-4.726-3.536s-4.726.935-4.726 3.536v8.891c0 2.601 2.125 3.536 4.726 3.536zm0-3.077c-.663 0-1.19-.357-1.19-1.02V4.352c0-.663.527-1.02 1.19-1.02.663 0 1.19.357 1.19 1.02v7.769c0 .663-.527 1.02-1.19 1.02zm11.332 2.737l1.156-7.684 1.241 7.684h4.42L110.087.595h-3.4l-1.258 10.2-1.462-10.2h-3.077l-1.394 10.2L98.34.595h-3.4l1.955 15.283h4.42zm12.403-.255v-3.23h-3.23v3.23h3.23zm18.132-6.392V6.273c-3.485-.272-5.491-2.652-5.491-4.556V.425h-3.825v1.292c0 1.904-1.921 4.284-5.491 4.556v2.958c3.451-.085 6.12-1.649 7.395-3.553 1.275 1.904 3.944 3.468 7.412 3.553zm.408 6.647v-3.06h-3.009V9.605h-3.451v3.213h-2.72V9.605h-3.451v3.213h-3.009v3.06h15.64zm15.99-9.554v-1.7h-10.863v-.561h10.778V.34h-14.45v1.7h10.761v.544h-10.761v3.74h14.535zm.51 2.924V6.953h-15.64v2.295h15.64zm-.34 6.885v-1.785h-11.033v-.561h10.778V9.928h-14.45v1.7h10.761v.544h-10.761v3.961h14.705zm16.102-7.072V6.29c-1.836-.136-3.281-.833-3.281-2.397h3.111V1.19h-3.043V0h-3.672v1.19h-3.077v2.703h3.094c0 1.564-1.411 2.261-3.264 2.397v2.771c2.244-.051 3.978-.629 5.066-1.921 1.088 1.292 2.805 1.87 5.066 1.921zm4.658.153V6.069h1.768V3.094h-1.768V.34h-3.74v8.874h3.74zm.34 6.919v-2.618c-3.638.051-4.794-.561-5.015-1.343h4.845V9.639h-14.246v2.533h4.845c-.221.782-1.394 1.394-5.015 1.343v2.618c3.808 0 6.086-.68 7.293-1.972 1.173 1.292 3.485 1.972 7.293 1.972zm16.16 0V9.316h1.768V6.069h-1.768V.34h-3.74v15.793h3.74zm-10.081-.255c2.516 0 4.556-1.7 4.556-4.199V4.794c0-2.499-2.04-4.199-4.556-4.199-2.499 0-4.539 1.7-4.539 4.199v6.885c0 2.499 2.04 4.199 4.539 4.199zm.034-2.873c-.68 0-1.156-.527-1.156-1.122V4.59c0-.561.476-1.139 1.156-1.139.68 0 1.173.578 1.173 1.139v7.293c0 .595-.493 1.122-1.173 1.122zm26.632-3.196V.51h-3.74v1.887h-6.953V.51h-3.757v9.299h14.45zm-3.74-2.805h-6.953V5.032h6.953v1.972zm4.335 8.874v-3.06h-5.933v-2.482h-3.774v2.482h-5.933v3.06h15.64zm12.794.255V.34h-2.975v5.355h-2.329v3.06h2.329v7.378h2.975zm3.706 0V.34h-3.043v15.793h3.043zm-7.531-.51v-3.672c-2.057-1.598-2.397-3.434-2.397-8.211V.68h-3.145v2.822c.051 4.947-.323 6.834-2.397 8.449v3.672c1.819-1.037 3.094-2.142 3.961-3.893.867 1.751 2.159 2.856 3.978 3.893zm19.322-6.052c2.516 0 4.284-2.023 4.284-4.522 0-2.516-1.768-4.539-4.284-4.539h-6.239c-2.499 0-4.267 2.023-4.267 4.539 0 2.499 1.768 4.522 4.267 4.522h6.239zm-1.088-2.873h-4.029c-.935 0-1.564-.697-1.564-1.649 0-.935.629-1.632 1.564-1.632h4.029c.935 0 1.564.697 1.564 1.632 0 .952-.629 1.649-1.564 1.649zm5.797 9.18v-3.06h-2.72v-2.669h-3.451v2.669h-3.23v-2.669h-3.451v2.669h-2.788v3.06h15.64z"/></svg><svg width="288" height="64" viewBox="-4 -4 288 64" id="button_recommend_pc" y="213" xmlns="http://www.w3.org/2000/svg"><g fill="none" fill-rule="evenodd"><rect width="280" height="56" fill="red" rx="8"/><path fill="#FFF" fill-rule="nonzero" d="M45.34 35.82V17.28H42.9v6.66h-1.8v-6.46h-2.44v17.88h2.44v-9.34h1.8v9.8h2.44zM32.3 30.7c2.06 0 4.1-.24 5.74-.74v-2.12c-1.66.48-3.36.74-5.1.74v-9.96h-2.5V30.7h1.86zm30.367 5.12V17.28h-2.32v18.54h2.32zm-3.68-.46V17.48h-2.3v7h-2.38c.52-1.72.8-3.62.86-5.66-1.38.02-2.88.04-4.48.04h-2.8v2.04h2.303a63.1 63.1 0 002.337-.04c-.18 3.54-1.56 6.94-5.66 9.58l1.74 1.58c2.26-1.5 3.84-3.32 4.86-5.44h3.22v8.78h2.3zM81.9 27.58v-4.5h2.78v-2.06H81.9v-3.74h-2.46v10.3h2.46zm-5.14-1.22V18.1h-8.68v8.26h8.68zm-2.44-1.96h-3.8v-4.34h3.8v4.34zm-4.2 11.46c2.16-.52 4.36-1.3 6.28-2.24 1.94.9 3.94 1.62 6.16 2.2l1.36-1.86c-2.14-.54-3.72-1.04-5.26-1.62 1.6-1.04 2.76-2.16 3.14-3.28.16-.48-.04-.74-.4-.74a165.44 165.44 0 01-3.501.04H70.6v2.02h3.945a66.676 66.676 0 003.555-.08c-.72.84-4.16 2.54-9.26 3.7l1.28 1.86zm29.047-11.54v-2.1h-9.76v-4.88h-2.48v6.98h12.24zm2.5 4.06v-2.1h-17.52v2.1h17.52zm-2.38 7.16v-2.12h-9.98v-3.56h-2.44v5.68h12.42zm9.293-1.64V23.1l-.02-1.72.56 1.72 4.92 10.8h3.32V18.44h-2.38v10.8l.02 1.72-.56-1.72-4.92-10.8h-3.32V33.9h2.38zm16.927.18c4.3 0 6.8-3.44 6.8-7.88 0-4.42-2.5-7.94-6.8-7.94-4.28 0-6.76 3.52-6.76 7.94 0 4.44 2.48 7.88 6.76 7.88zm0-2.12c-2.74 0-4.16-2.36-4.16-5.78 0-3.42 1.42-5.8 4.16-5.8 2.76 0 4.2 2.38 4.2 5.8s-1.44 5.78-4.2 5.78zm13.426 1.94l2.5-11 .28-1.6.28 1.6 2.5 11h2.66l3.88-15.46h-2.58l-2.3 10.8-.28 1.6-.28-1.6-2.44-10.8h-2.88l-2.44 10.8-.28 1.6-.28-1.6-2.3-10.8h-2.58l3.88 15.46h2.66zm14.447.3c.98 0 1.72-.74 1.72-1.62 0-.88-.74-1.64-1.72-1.64-.96 0-1.7.76-1.7 1.64 0 .88.74 1.62 1.7 1.62zm21.193-6l1.56-1.8c-3.1-1-5.18-2.78-6.76-5.5.2-.86.3-1.78.24-2.76h-2.48c.1 4.48-2.26 6.72-6.54 8.22l1.62 1.8c2.56-.92 4.82-2.56 6.16-4.8 1.5 2.24 3.64 3.98 6.2 4.84zm2.26 5.02v-2.06h-4.62v-3.48h-2.48v3.48h-2.82v-3.48h-2.48v3.48h-4.76v2.06h17.16zm15.214-13.76v-2.1h-7v2.1h7zm-9.8 7.86c2.24-.32 4.78-1 6.98-2.02 2 .9 4.1 1.54 6.36 1.92l1.14-1.9c-2-.32-3.72-.74-5.26-1.26 1.22-.84 2.22-1.82 2.78-2.94.16-.48.02-.76-.44-.76-2.7.04-5.38.04-8.06.04h-2.96v1.98h3.3c1.42-.02 2.84-.02 4.28-.08-1.06 1-4.74 2.52-9.24 3.1l1.12 1.92zm8.06 8.4v-5.48h7.18v-2.06h-17.16v2.06h7.56v5.48h2.42zm22.466-4.24v-14.2h-2.48v5.94h-2.62v2.08h2.62v6.18h2.48zm-6.58-12v-2.02h-5.88v2.02h5.88zm-7.06 10.18c1.86-.78 3.48-1.82 4.76-3.04 1.14 1.1 2.42 2.02 3.84 2.7l1.48-1.8c-1.6-.7-2.82-1.5-3.9-2.48 1.06-1.42 1.74-3.02 1.98-4.68-1.82.04-3.68.04-5.52.04h-2.96v1.98h1.88c1.2 0 2.4 0 3.6-.04-.42 1.36-2.46 4.02-6.56 5.58l1.4 1.74zm14 5.8v-2.1h-9.46v-2.8h-2.5v4.9h11.96zm19.454-7.6V23.3h2.78v-2.06h-2.78v-3.96h-2.46v10.58h2.46zm-5.18-1.18v-8.86h-2.4v2.7h-3.82v-2.7h-2.44v8.86h8.66zm-2.4-1.94h-3.82V22.5h3.82v2.24zm7.92 10.8v-2.06h-9.44v-2.8h9.14v-2.04h-11.62v6.9h11.92zm17.506.28V17.28h-2.48v18.54h2.48zm-13.72-3.78c5.88-3.14 8.18-7.46 8.54-13.24-1.757.031-3.31.038-4.797.04h-4.443v2.12h2.12c1.48 0 2.96-.02 4.44-.06-.42 3.46-2.52 7.02-7.52 9.4l1.66 1.74z"/></g></svg><svg width="28" height="20" viewBox="-4 -4 28 20" id="button_scroll_down" x="695" y="142" xmlns="http://www.w3.org/2000/svg"><path fill="#FFF" d="M.418.424a1.415 1.415 0 011.886-.12l.135.12L10 8.084l7.561-7.66a1.415 1.415 0 011.886-.12l.135.12a1.46 1.46 0 01.118 1.91l-.118.137-8.572 8.684a1.415 1.415 0 01-1.886.12l-.134-.12L.418 2.471a1.463 1.463 0 010-2.047z"/></svg><svg width="29" height="29" viewBox="-4 -4 29 29" id="button_share" x="316" y="177" xmlns="http://www.w3.org/2000/svg"><g fill="#FFF" fill-rule="nonzero" opacity=".5"><path d="M6.098 4.654a.73.73 0 01.131 1.45l-.131.011H2.462a.732.732 0 00-.72.6l-.011.131v11.692c0 .359.259.657.6.72l.13.011h13.154a.732.732 0 00.72-.6l.011-.13V14.67a.73.73 0 011.45-.131l.012.131v3.867c0 1.14-.87 2.076-1.982 2.183l-.21.01H2.461c-1.14 0-2.076-.87-2.183-1.981l-.01-.212V6.846c0-1.139.87-2.076 1.981-2.182l.212-.01h3.636z"/><path d="M14.255 3.33l-.29.014c-2.613.184-4.404 1.67-5.454 3.999a10.998 10.998 0 00-.792 2.642c-.093.54-.133.965-.142 1.221-.026.78 1.023 1.053 1.38.36.855-1.66 2.076-2.598 3.535-2.998l.341-.083c.45-.096.872-.134 1.247-.133l.169.004v2.25c0 1.185 1.38 1.846 2.189.914l3.996-4.637a1.254 1.254 0 00-.01-1.631L16.43.694c-.812-.922-2.182-.257-2.182.921l.006 1.715zm1.455-1.24l3.49 3.984-3.49 4.049V7.697a.73.73 0 00-.601-.72l-.028-.005c-.775-.132-1.821-.13-2.975.186l-.342.103a6.71 6.71 0 00-1.893.97l-.216.166c.062-.162.123-.309.188-.453.956-2.12 2.564-3.292 5.103-3.145a.73.73 0 00.773-.732L15.71 2.09z"/></g></svg><svg width="229" height="92" viewBox="-4 -4 229 92" id="event_title" y="277" xmlns="http://www.w3.org/2000/svg"><g fill="none" fill-rule="evenodd"><path fill="#000" fill-rule="nonzero" d="M81.056 14.656v-4.152c-2.088-.12-4.848-1.68-4.848-4.248v-.24h4.584V1.888h-4.464V.208h-5.4v1.68H66.44v4.128h4.608v.24c0 2.568-2.76 4.128-4.848 4.248v4.152c3.168-.168 5.808-1.488 7.416-3.768 1.608 2.28 4.248 3.6 7.44 3.768zm6.72 2.832V.688h-5.4v16.8h5.4zm.36 5.496v-3.936H72.92v-3.456h-5.472v7.392h20.688zm21.199-11.712l1.128-10.224H89.799v4.08h15.048l-.696 6.144h5.184zm-6.6 11.952v-7.032h8.448v-4.32h-22.08v4.32h8.208v7.032h5.424zm26.359-.24V.688h-4.2V9.04h-1.8V5.8c0-2.76-2.4-4.752-5.184-4.752-2.784 0-5.184 1.992-5.184 4.752v12.072c0 2.76 2.4 4.752 5.184 4.752 2.784 0 5.184-1.992 5.184-4.752V13.36h1.8v9.624h4.2zm5.232 0V.688h-4.296v22.296h4.296zm-16.32-4.368c-.48 0-1.032-.384-1.032-.888V5.944c0-.504.552-.888 1.032-.888s1.032.384 1.032.888v11.784c0 .504-.552.888-1.032.888zm34.23 4.368V.688h-4.2V9.04h-1.727c.168-1.368.264-2.856.264-4.512v-3.12h-10.824v4.32h6.36c0 4.512-.912 10.56-6.48 12.288v4.488c4.464-.912 8.064-3.456 9.816-9.144h2.592v9.624h4.2zm5.233 0V.688h-4.296v22.296h4.296zM111.464 43.24v-4.176c-4.92-.384-7.752-3.744-7.752-6.432v-1.824h-5.4v1.824c0 2.688-2.712 6.048-7.752 6.432v4.176c4.872-.12 8.64-2.328 10.44-5.016 1.8 2.688 5.568 4.896 10.464 5.016zm.576 9.384v-4.32h-4.248v-4.536h-4.872v4.536h-3.84v-4.536h-4.872v4.536H89.96v4.32h22.08zm28.238-13.632l.528-8.304h-20.64v3.672h15.312l-.312 4.632h5.112zm1.248 4.488v-3.768h-9.936v-3.816h-5.28v3.816h-6.864v3.768h22.08zm-4.584 9.624c2.232 0 4.104-1.92 4.104-4.296 0-2.4-1.872-4.248-4.104-4.248h-12.936c-2.232 0-4.08 1.848-4.08 4.248 0 2.376 1.848 4.296 4.08 4.296h12.936zm-1.392-3.744h-10.176c-.312 0-.552-.288-.552-.648 0-.36.24-.624.552-.624h10.176c.312 0 .552.264.552.624s-.24.648-.552.648zm23.335-8.064a5.193 5.193 0 005.184-5.184 5.193 5.193 0 00-5.184-5.184h-10.512a5.193 5.193 0 00-5.184 5.184 5.193 5.193 0 005.184 5.184h10.512zm-1.08-4.032h-8.352c-.648 0-1.104-.48-1.104-1.128 0-.6.456-1.128 1.104-1.128h8.352c.648 0 1.128.48 1.128 1.128 0 .648-.48 1.128-1.128 1.128zm-7.224 15.84l1.344-5.928h3.912v5.928h5.184v-5.928h3.648v-4.32h-22.08v4.32h4.032l-1.344 5.928h5.304zm28.974-16.176v-4.08h-4.152v-2.4h-5.28v2.4h-4.152v4.08h13.584zm7.296 16.056V43.36h2.496v-4.584h-2.496v-8.088h-5.28v22.296h5.28zm-14.112-.36c3.696 0 6.552-2.16 6.552-5.688v-3.48c0-3.504-2.856-5.664-6.552-5.664-3.672 0-6.528 2.16-6.528 5.664v3.48c0 3.528 2.856 5.688 6.528 5.688zm.048-3.744c-.936 0-1.752-.672-1.752-1.656v-3.96c0-.96.816-1.68 1.752-1.68s1.776.72 1.776 1.68v3.96c0 .984-.84 1.656-1.776 1.656zm37.927-1.752v-16.44h-5.304v2.28h-3.216v-1.92h-12.84v12.768h12.84v-1.968h3.216v5.28h5.304zm-13.488-7.152h-2.808v-5.088h2.808v5.088zm8.184-1.632h-3.216v-1.872h3.216v1.872zm5.664 14.64v-3.936h-15.36v-3.696h-5.352v7.632h20.712z"/><path fill="red" d="M28.424 31v22L15.99 43.011V53H10V31l12.434 9.99V31h5.99zm13.46 0c5.86 0 10.61 4.925 10.61 11s-4.75 11-10.61 11c-5.86 0-10.61-4.925-10.61-11s4.75-11 10.61-11zm15.583 0l4.693 9.664 1.697-3.496L66.852 31l2.996 6.168 1.698 3.496L76.238 31h5.99L74.54 46.832 71.546 53l-2.995-6.168-1.699-3.496-1.697 3.496L62.16 53l-2.995-6.168L51.477 31h5.99zm22.869 14.402c2.023 0 3.664 1.701 3.664 3.8C84 51.298 82.36 53 80.336 53s-3.664-1.7-3.664-3.799c0-2.098 1.64-3.799 3.664-3.799zM41.884 37.21c-2.548 0-4.62 2.149-4.62 4.79 0 2.64 2.072 4.79 4.62 4.79 2.547 0 4.62-2.15 4.62-4.79 0-2.641-2.073-4.79-4.62-4.79z"/><path fill="red" fill-rule="nonzero" d="M17.808 82.984V60.688h-4.2v8.352h-1.8V65.8c0-2.76-2.4-4.752-5.184-4.752-2.784 0-5.184 1.992-5.184 4.752v12.072c0 2.76 2.4 4.752 5.184 4.752 2.784 0 5.184-1.992 5.184-4.752V73.36h1.8v9.624h4.2zm5.232 0V60.688h-4.296v22.296h4.296zM6.72 78.616c-.48 0-1.032-.384-1.032-.888V65.944c0-.504.552-.888 1.032-.888s1.032.384 1.032.888v11.784c0 .504-.552.888-1.032.888zm39.199 4.368V60.688h-5.28v8.328h-3.216v-2.04c0-3.528-2.88-5.928-6.432-5.928-3.528 0-6.408 2.4-6.408 5.928v9.72c0 3.528 2.88 5.928 6.408 5.928 3.552 0 6.432-2.4 6.432-5.928V73.36h3.216v9.624h5.28zm-14.88-4.416c-.96 0-1.632-.744-1.632-1.584V66.688c0-.792.672-1.608 1.632-1.608.96 0 1.656.816 1.656 1.608v10.296c0 .84-.696 1.584-1.656 1.584zm37.327-2.832V70h2.496v-4.2h-2.496v-5.112h-5.28v15.048h5.28zm-7.104-11.232v-3.456H47.726v3.456h13.536zm.24 9.12v-3.456h-1.968l.528-5.064h-4.44l-.432 5.064h-1.632l-.408-5.064h-4.44l.528 5.064h-1.752v3.456h14.016zm7.824 9.36v-4.128c-5.16 0-7.824-1.536-7.824-3.84v-.24h-5.4v.24c0 2.304-2.688 3.84-7.848 3.84v4.128c5.688 0 8.88-1.68 10.536-3.6 1.656 1.92 4.776 3.6 10.536 3.6zM97.97 64.912v-3.864h-20.4v3.864h20.4zm.24 9.936v-3.864H94.9l.456-5.472h-4.824l-.36 5.472h-4.896l-.336-5.472h-4.824l.432 5.472h-3.216v3.864h20.88zm.6 7.776v-4.368H76.73v4.368h22.08zm22.543-8.328v-3.792H105.97v-1.2h15.144v-8.256h-20.4v3.648h15.144V65.8h-15.144v8.496h20.64zm.6 8.328v-4.272h-8.328v-3.336h-5.424v3.336h-8.328v4.272h22.08zm8.551-7.632c3.744 0 6.792-1.944 6.792-5.952v-2.28c0-4.032-3.048-6.072-6.792-6.072-3.72 0-6.768 2.04-6.768 6.072v2.28c0 4.008 3.048 5.952 6.768 5.952zm14.328 7.992V60.688h-5.4v22.296h5.4zM130.505 71.08c-.984 0-1.776-.672-1.776-1.8v-2.808c0-1.128.792-1.872 1.776-1.872 1.032 0 1.848.744 1.848 1.872v2.808c0 1.128-.816 1.8-1.848 1.8zm-7.488 11.544l15.816-.96v-4.32l-15.816.96v4.32zm41.246-17.448v-3.24h-3.552v-1.728h-4.416v1.728h-3.552v3.24h11.52zm4.968 9.216v-4.92h1.056v4.92h4.296V60.688h-4.296v4.704h-1.056v-4.704h-4.2v13.704h4.2zm-8.496-.888c1.848 0 3.336-1.752 3.336-3.816 0-2.088-1.488-3.84-3.336-3.84h-4.416c-1.848 0-3.336 1.752-3.336 3.84 0 2.064 1.488 3.816 3.336 3.816h4.416zm-.96-3.12h-2.52c-.384 0-.624-.384-.624-.696 0-.384.24-.72.624-.72h2.52c.384 0 .624.336.624.72 0 .312-.24.696-.624.696zm10.656 12.72c2.64 0 4.392-1.752 4.392-4.128 0-2.376-1.752-4.104-4.392-4.104h-12.384c-2.592 0-4.344 1.728-4.344 4.104 0 2.376 1.752 4.128 4.344 4.128h12.384zm-1.872-3.408h-8.64c-.576 0-.912-.24-.912-.72s.336-.72.912-.72h8.64c.672 0 .984.24.984.72s-.312.72-.984.72zm24.559-10.176c2.208 0 4.056-1.992 4.056-4.464 0-2.472-1.848-4.512-4.056-4.512h-12.84c-2.232 0-4.032 2.04-4.032 4.512 0 2.472 1.8 4.464 4.032 4.464h12.84zm-1.464-3.888h-9.936c-.36 0-.576-.312-.576-.672 0-.36.216-.672.576-.672h9.936c.36 0 .576.312.576.672 0 .36-.216.672-.576.672zM189.35 78.04v-3.744h8.376v-3.624h-22.08v3.624h8.64v3.744h5.064zm7.896 4.944v-3.576h-15.552v-3.504h-5.208v7.08h20.76zm23.359 0V60.688h-5.4v22.296h5.4zm-14.568-.36c3.744 0 6.816-2.4 6.816-5.928v-9.72c0-3.528-3.072-5.928-6.816-5.928-3.72 0-6.768 2.4-6.768 5.928v9.72c0 3.528 3.048 5.928 6.768 5.928zm.072-4.056c-1.032 0-1.728-.792-1.728-1.632v-10.2c0-.792.696-1.656 1.728-1.656s1.752.864 1.752 1.656v10.2c0 .84-.72 1.632-1.752 1.632z"/></g></svg><svg width="512" height="100" viewBox="-4 -4 512 100" id="event_title_pc" y="77" xmlns="http://www.w3.org/2000/svg"><g fill="none" fill-rule="evenodd"><path fill="#000" fill-rule="nonzero" d="M26.76 24.76v-6.92c-3.48-.2-8.08-2.8-8.08-7.08v-.4h7.64V3.48h-7.44V.68h-9v2.8H2.4v6.88h7.68v.4c0 4.28-4.6 6.88-8.08 7.08v6.92c5.28-.28 9.68-2.48 12.36-6.28 2.68 3.8 7.08 6 12.4 6.28zm11.2 4.72v-28h-9v28h9zm.6 9.16v-6.56H13.2v-5.76H4.08v12.32h34.48zm35.331-19.52l1.88-17.04h-34.44v6.8h25.08l-1.16 10.24h8.64zm-11 19.92V27.32h14.08v-7.2h-36.8v7.2h13.68v11.72h9.04zm43.932-.4V1.48h-7V15.4h-3V10c0-4.6-4-7.92-8.64-7.92-4.64 0-8.64 3.32-8.64 7.92v20.12c0 4.6 4 7.92 8.64 7.92 4.64 0 8.64-3.32 8.64-7.92V22.6h3v16.04h7zm8.72 0V1.48h-7.16v37.16h7.16zm-27.2-7.28c-.8 0-1.72-.64-1.72-1.48V10.24c0-.84.92-1.48 1.72-1.48.8 0 1.72.64 1.72 1.48v19.64c0 .84-.92 1.48-1.72 1.48zm57.051 7.28V1.48h-7V15.4h-2.88c.28-2.28.44-4.76.44-7.52v-5.2h-18.04v7.2h10.6c0 7.52-1.52 17.6-10.8 20.48v7.48c7.44-1.52 13.44-5.76 16.36-15.24h4.32v16.04h7zm8.72 0V1.48h-7.16v37.16h7.16zM337.44 23.4v-6.96c-8.2-.64-12.92-6.24-12.92-10.72V2.68h-9v3.04c0 4.48-4.52 10.08-12.92 10.72v6.96c8.12-.2 14.4-3.88 17.4-8.36 3 4.48 9.28 8.16 17.44 8.36zm.96 15.64v-7.2h-7.08v-7.56h-8.12v7.56h-6.4v-7.56h-8.12v7.56h-7.08v7.2h36.8zm47.063-22.72l.88-13.84h-34.4V8.6h25.52l-.52 7.72h8.52zm2.08 7.48v-6.28h-16.56v-6.36h-8.8v6.36h-11.44v6.28h36.8zm-7.64 16.04c3.72 0 6.84-3.2 6.84-7.16 0-4-3.12-7.08-6.84-7.08h-21.56c-3.72 0-6.8 3.08-6.8 7.08 0 3.96 3.08 7.16 6.8 7.16h21.56zm-2.32-6.24h-16.96c-.52 0-.92-.48-.92-1.08 0-.6.4-1.04.92-1.04h16.96c.52 0 .92.44.92 1.04 0 .6-.4 1.08-.92 1.08zm38.891-13.44c4.76 0 8.64-3.88 8.64-8.64 0-4.76-3.88-8.64-8.64-8.64h-17.52c-4.76 0-8.64 3.88-8.64 8.64 0 4.76 3.88 8.64 8.64 8.64h17.52zm-1.8-6.72h-13.92c-1.08 0-1.84-.8-1.84-1.88 0-1 .76-1.88 1.84-1.88h13.92c1.08 0 1.88.8 1.88 1.88 0 1.08-.8 1.88-1.88 1.88zm-12.04 26.4l2.24-9.88h6.52v9.88h8.64v-9.88h6.08v-7.2h-36.8v7.2h6.72l-2.24 9.88h8.84zm48.292-26.96v-6.8h-6.92v-4h-8.8v4h-6.92v6.8h22.64zm12.16 26.76V23.6h4.16v-7.64h-4.16V2.48h-8.8v37.16h8.8zm-23.52-.6c6.16 0 10.92-3.6 10.92-9.48v-5.8c0-5.84-4.76-9.44-10.92-9.44-6.12 0-10.88 3.6-10.88 9.44v5.8c0 5.88 4.76 9.48 10.88 9.48zm.08-6.24c-1.56 0-2.92-1.12-2.92-2.76v-6.6c0-1.6 1.36-2.8 2.92-2.8 1.56 0 2.96 1.2 2.96 2.8v6.6c0 1.64-1.4 2.76-2.96 2.76zm63.211-2.92V2.48h-8.84v3.8h-5.36v-3.2h-21.4v21.28h21.4v-3.28h5.36v8.8h8.84zm-22.48-11.92h-4.68V9.48h4.68v8.48zm13.64-2.72h-5.36v-3.12h5.36v3.12zm9.44 24.4v-6.56h-25.6v-6.16h-8.92v12.72h34.52z"/><path fill="red" d="M203.375 2v36l-20.5-16.345V38H173V2l20.5 16.345V2h9.875zm22.19 0c9.66 0 17.492 8.059 17.492 18s-7.832 18-17.492 18-17.492-8.059-17.492-18 7.832-18 17.492-18zm25.69 0l7.738 15.814 2.799-5.721L266.73 2l4.938 10.093 2.799 5.721L282.204 2h9.875l-12.675 25.907L274.467 38l-4.938-10.093-2.8-5.721-2.798 5.721L258.993 38l-4.938-10.093L241.38 2h9.876zm37.704 23.567c3.336 0 6.041 2.784 6.041 6.217S292.295 38 288.96 38c-3.337 0-6.042-2.783-6.042-6.216 0-3.433 2.705-6.217 6.041-6.217zm-63.394-13.405c-4.2 0-7.616 3.516-7.616 7.838 0 4.321 3.416 7.837 7.616 7.837 4.2 0 7.616-3.516 7.616-7.837 0-4.322-3.416-7.838-7.616-7.838z"/><path fill="red" fill-rule="nonzero" d="M29.68 91.64V54.48h-7V68.4h-3V63c0-4.6-4-7.92-8.64-7.92C6.4 55.08 2.4 58.4 2.4 63v20.12c0 4.6 4 7.92 8.64 7.92 4.64 0 8.64-3.32 8.64-7.92V75.6h3v16.04h7zm8.72 0V54.48h-7.16v37.16h7.16zm-27.2-7.28c-.8 0-1.72-.64-1.72-1.48V63.24c0-.84.92-1.48 1.72-1.48.8 0 1.72.64 1.72 1.48v19.64c0 .84-.92 1.48-1.72 1.48zm65.331 7.28V54.48h-8.8v13.88h-5.36v-3.4c0-5.88-4.8-9.88-10.72-9.88-5.88 0-10.68 4-10.68 9.88v16.2c0 5.88 4.8 9.88 10.68 9.88 5.92 0 10.72-4 10.72-9.88V75.6h5.36v16.04h8.8zm-24.8-7.36c-1.6 0-2.72-1.24-2.72-2.64V64.48c0-1.32 1.12-2.68 2.72-2.68s2.76 1.36 2.76 2.68v17.16c0 1.4-1.16 2.64-2.76 2.64zm62.212-4.72V70h4.16v-7h-4.16v-8.52h-8.8v25.08h8.8zm-11.84-18.72v-5.76h-22.56v5.76h22.56zm.4 15.2v-5.76h-3.28l.88-8.44h-7.4l-.72 8.44h-2.72l-.68-8.44h-7.4l.88 8.44h-2.92v5.76h23.36zm13.04 15.6v-6.88c-8.6 0-13.04-2.56-13.04-6.4v-.4h-9v.4c0 3.84-4.48 6.4-13.08 6.4v6.88c9.48 0 14.8-2.8 17.56-6 2.76 3.2 7.96 6 17.56 6zm47.743-30.12v-6.44h-34v6.44h34zm.4 16.56v-6.44h-5.52l.76-9.12h-8.04l-.6 9.12h-8.16l-.56-9.12h-8.04l.72 9.12h-5.36v6.44h34.8zm1 12.96v-7.28h-36.8v7.28h36.8zm37.571-13.88v-6.32h-25.64v-2h25.24V55.08h-34v6.08h25.24V63h-25.24v14.16h34.4zm1 13.88v-7.12h-13.88v-5.56h-9.04v5.56h-13.88v7.12h36.8zm14.252-12.72c6.24 0 11.32-3.24 11.32-9.92v-3.8c0-6.72-5.08-10.12-11.32-10.12-6.2 0-11.28 3.4-11.28 10.12v3.8c0 6.68 5.08 9.92 11.28 9.92zm23.88 13.32V54.48h-9v37.16h9zm-23.88-19.84c-1.64 0-2.96-1.12-2.96-3v-4.68c0-1.88 1.32-3.12 2.96-3.12 1.72 0 3.08 1.24 3.08 3.12v4.68c0 1.88-1.36 3-3.08 3zm-12.48 19.24l26.36-1.6v-7.2l-26.36 1.6v7.2zm68.742-29.08v-5.4h-5.92v-2.88h-7.36v2.88h-5.92v5.4h19.2zm8.28 15.36v-8.2h1.76v8.2h7.16V54.48h-7.16v7.84h-1.76v-7.84h-7v22.84h7zm-14.16-1.48c3.08 0 5.56-2.92 5.56-6.36 0-3.48-2.48-6.4-5.56-6.4h-7.36c-3.08 0-5.56 2.92-5.56 6.4 0 3.44 2.48 6.36 5.56 6.36h7.36zm-1.6-5.2h-4.2c-.64 0-1.04-.64-1.04-1.16 0-.64.4-1.2 1.04-1.2h4.2c.64 0 1.04.56 1.04 1.2 0 .52-.4 1.16-1.04 1.16zm17.76 21.2c4.4 0 7.32-2.92 7.32-6.88s-2.92-6.84-7.32-6.84h-20.64c-4.32 0-7.24 2.88-7.24 6.84s2.92 6.88 7.24 6.88h20.64zm-3.12-5.68h-14.4c-.96 0-1.52-.4-1.52-1.2 0-.8.56-1.2 1.52-1.2h14.4c1.12 0 1.64.4 1.64 1.2 0 .8-.52 1.2-1.64 1.2zm40.932-16.96c3.68 0 6.76-3.32 6.76-7.44 0-4.12-3.08-7.52-6.76-7.52h-21.4c-3.72 0-6.72 3.4-6.72 7.52 0 4.12 3 7.44 6.72 7.44h21.4zm-2.44-6.48h-16.56c-.6 0-.96-.52-.96-1.12 0-.6.36-1.12.96-1.12h16.56c.6 0 .96.52.96 1.12 0 .6-.36 1.12-.96 1.12zm-3.84 20.68v-6.24h13.96v-6.04h-36.8v6.04h14.4v6.24h8.44zm13.16 8.24v-5.96h-25.92v-5.84h-8.68v11.8h34.6zm38.931 0V54.48h-9v37.16h9zm-24.28-.6c6.24 0 11.36-4 11.36-9.88v-16.2c0-5.88-5.12-9.88-11.36-9.88-6.2 0-11.28 4-11.28 9.88v16.2c0 5.88 5.08 9.88 11.28 9.88zm.12-6.76c-1.72 0-2.88-1.32-2.88-2.72v-17c0-1.32 1.16-2.76 2.88-2.76s2.92 1.44 2.92 2.76v17c0 1.4-1.2 2.72-2.92 2.72z"/></g></svg><svg width="24" height="24" viewBox="-4 -4 24 24" id="layer_close" x="345" y="177" xmlns="http://www.w3.org/2000/svg"><g fill-rule="evenodd"><path d="M.222 1.636L1.636.222l14.142 14.142-1.414 1.414z"/><path d="M15.778 1.636L14.364.222.222 14.364l1.414 1.414z"/></g></svg><svg width="56" height="22" viewBox="-4 -4 56 22" id="layer_logo_now" x="584" y="142" xmlns="http://www.w3.org/2000/svg"><path fill="red" fill-rule="evenodd" d="M11.951 0v14L3.885 7.644V14H0V0l8.066 6.356V0h3.885zm8.73 0c3.801 0 6.882 3.134 6.882 7s-3.08 7-6.882 7c-3.8 0-6.882-3.134-6.882-7s3.082-7 6.882-7zM30.79 0l3.044 6.15 1.102-2.225L36.877 0l1.943 3.925 1.101 2.225L42.965 0h3.886l-4.987 10.075L39.921 14l-1.942-3.925-1.102-2.225-1.1 2.225L33.832 14l-1.942-3.925L26.904 0h3.885zm14.834 9.165c1.313 0 2.377 1.082 2.377 2.418C48 12.918 46.936 14 45.623 14c-1.312 0-2.376-1.082-2.376-2.417 0-1.336 1.064-2.418 2.376-2.418zM20.681 3.952c-1.652 0-2.996 1.367-2.996 3.048 0 1.68 1.344 3.048 2.996 3.048 1.653 0 2.997-1.367 2.997-3.048 0-1.68-1.344-3.048-2.997-3.048z"/></svg><svg width="55" height="22" viewBox="-4 -4 55 22" id="layer_logo_now_w47" x="640" y="142" xmlns="http://www.w3.org/2000/svg"><path fill="red" fill-rule="evenodd" d="M11.702 0v14L3.805 7.644V14H0V0l7.898 6.356V0h3.804zm8.548 0c3.722 0 6.74 3.134 6.74 7s-3.018 7-6.74 7c-3.721 0-6.738-3.134-6.738-7s3.017-7 6.738-7zm9.898 0l2.98 6.15 1.079-2.225L36.109 0l1.902 3.925L39.09 6.15 42.07 0h3.805l-4.883 10.075L39.09 14l-1.902-3.925-1.079-2.225-1.078 2.225L33.128 14l-1.902-3.925L26.343 0h3.805zm14.525 9.165c1.285 0 2.327 1.082 2.327 2.418C47 12.918 45.958 14 44.673 14s-2.327-1.082-2.327-2.417c0-1.336 1.042-2.418 2.327-2.418zM20.25 3.952c-1.617 0-2.934 1.367-2.934 3.048 0 1.68 1.317 3.048 2.934 3.048 1.618 0 2.935-1.367 2.935-3.048 0-1.68-1.317-3.048-2.935-3.048z"/></svg><svg width="72" height="27" viewBox="-4 -4 72 27" id="logo_now" x="679" y="102" xmlns="http://www.w3.org/2000/svg"><path fill="red" fill-rule="evenodd" d="M15.935 0v19L5.18 10.373V19H0V0l10.754 8.627V0h5.18zm11.64 0c5.068 0 9.176 4.253 9.176 9.5S32.643 19 27.575 19c-5.068 0-9.176-4.253-9.176-9.5S22.507 0 27.575 0zm13.477 0l4.059 8.346 1.468-3.02L49.17 0l2.591 5.327 1.469 3.02L57.287 0h5.18L55.82 13.673 53.229 19l-2.59-5.327-1.47-3.02-1.468 3.02L45.111 19l-2.59-5.327L35.87 0h5.181zm19.78 12.438c1.75 0 3.168 1.47 3.168 3.281 0 1.812-1.419 3.28-3.169 3.28s-3.169-1.468-3.169-3.28c0-1.812 1.419-3.28 3.17-3.28zM27.574 5.364c-2.203 0-3.995 1.855-3.995 4.136 0 2.28 1.792 4.136 3.995 4.136 2.203 0 3.995-1.855 3.995-4.136 0-2.28-1.792-4.136-3.995-4.136z"/></svg><svg width="72" height="27" viewBox="-4 -4 72 27" id="logo_now_nodot" x="512" y="142" xmlns="http://www.w3.org/2000/svg"><path fill="red" fill-rule="evenodd" d="M15.935 0v18.56L5.18 10.133v8.427H0V0l10.754 8.427V0h5.18zm11.64 0c5.068 0 9.176 4.155 9.176 9.28 0 5.125-4.108 9.28-9.176 9.28-5.068 0-9.176-4.155-9.176-9.28C18.4 4.155 22.507 0 27.575 0zm13.477 0l4.059 8.153 1.468-2.95L49.17 0l2.591 5.203 1.469 2.95L57.287 0h5.18L55.82 13.357l-2.59 5.203-2.59-5.203-1.47-2.95-1.468 2.95-2.59 5.203-2.59-5.203L35.87 0h5.181zM27.575 5.24c-2.203 0-3.995 1.812-3.995 4.04 0 2.228 1.792 4.04 3.995 4.04 2.203 0 3.995-1.812 3.995-4.04 0-2.228-1.792-4.04-3.995-4.04z"/></svg><svg width="128" height="43" viewBox="-4 -4 128 43" id="logo_now_nodot_pc" x="405" y="277" xmlns="http://www.w3.org/2000/svg"><path fill="red" fill-rule="evenodd" d="M29.878 0v34.8L9.714 19v15.8H0V0l20.164 15.8V0h9.714zm21.825 0c9.502 0 17.205 7.79 17.205 17.4s-7.703 17.4-17.205 17.4c-9.502 0-17.205-7.79-17.205-17.4S42.201 0 51.703 0zm25.27 0l7.61 15.287 2.753-5.53L92.193 0l4.857 9.756 2.754 5.531L107.414 0h9.713L104.66 25.043 99.804 34.8l-4.857-9.757-2.754-5.53-2.753 5.53-4.857 9.757-4.857-9.757L67.26 0h9.714zm-25.27 9.824c-4.13 0-7.491 3.398-7.491 7.576 0 4.177 3.36 7.576 7.491 7.576 4.13 0 7.492-3.399 7.492-7.576 0-4.178-3.361-7.576-7.492-7.576z"/></svg><svg width="128" height="43" viewBox="-4 -4 128 43" id="logo_now_pc" x="533" y="277" xmlns="http://www.w3.org/2000/svg"><path fill="red" fill-rule="evenodd" d="M29.878 0v34.8L9.714 19v15.8H0V0l20.164 15.8V0h9.714zm21.825 0c9.502 0 17.205 7.79 17.205 17.4s-7.703 17.4-17.205 17.4c-9.502 0-17.205-7.79-17.205-17.4S42.201 0 51.703 0zm25.27 0l7.61 15.287 2.753-5.53L92.193 0l4.857 9.756 2.754 5.531L107.414 0h9.713L104.66 25.043 99.804 34.8l-4.857-9.757-2.754-5.53-2.753 5.53-4.857 9.757-4.857-9.757L67.26 0h9.714zm37.085 22.782c3.282 0 5.942 2.69 5.942 6.009 0 3.319-2.66 6.009-5.942 6.009-3.281 0-5.941-2.69-5.941-6.01 0-3.318 2.66-6.008 5.941-6.008zM51.703 9.824c-4.13 0-7.491 3.398-7.491 7.576 0 4.177 3.36 7.576 7.491 7.576 4.13 0 7.492-3.399 7.492-7.576 0-4.178-3.361-7.576-7.492-7.576z"/></svg><svg width="167" height="40" viewBox="-4 -4 167 40" id="survey_title" x="512" y="102" xmlns="http://www.w3.org/2000/svg"><g fill="none" fill-rule="evenodd"><rect width="158" height="31" x=".5" y=".5" stroke="red" rx="15.5"/><path fill="red" fill-rule="nonzero" d="M27.314 22.158v-5.291h.702v5.291h2.418V10.081h-2.418v4.433h-.702v-4.433H25v12.077h2.314zm-8.58-.39l5.941-.65v-2.353l-3.328.364v-8.723h-2.613v11.362zm21.484.39V10.081h-2.275v4.524h-.936c.09-.741.143-1.547.143-2.444v-1.69h-5.863v2.34h3.445c0 2.444-.494 5.72-3.51 6.656v2.431c2.418-.494 4.368-1.872 5.317-4.953h1.404v5.213h2.275zm2.834 0V10.081h-2.327v12.077h2.327zm15.615-5.421v-2.275h1.352v-2.275h-1.352v-2.106h-2.86v6.656h2.86zm-4.238-.442v-6.019h-6.942v6.019h6.942zm-2.69-1.963H50.23v-2.093h1.508v2.093zm7.188 7.826v-2.002c-2.99.039-3.77-.481-3.874-1.157h3.744v-1.937H47.903v1.937h3.731c-.065.676-.897 1.196-3.86 1.157v2.002c2.911 0 4.653-.494 5.576-1.56.897 1.066 2.665 1.56 5.577 1.56zm12.488-7.696v-1.95h-8.32v-2.496H60.3v4.446h11.115zm.39 3.042v-2.145h-11.96v2.145h11.96zm-.26 4.654v-2.08H63.16v-1.976H60.3v4.056h11.245zm7.035-.195v-5.915l2.093 5.915h2.6V10.276h-2.6v5.967l-2.093-5.967h-2.6v11.687h2.6zm8.965.26c1.989 0 3.614-.715 3.614-2.704V12.72c0-1.989-1.625-2.704-3.614-2.704-1.99 0-3.614.715-3.614 2.704v6.799c0 1.989 1.625 2.704 3.614 2.704zm0-2.353c-.507 0-.91-.273-.91-.78v-5.941c0-.507.403-.78.91-.78s.91.273.91.78v5.941c0 .507-.403.78-.91.78zm8.665 2.093l.884-5.876.95 5.876h3.38l1.494-11.687h-2.6l-.962 7.8-1.118-7.8h-2.353l-1.066 7.8-.884-7.8h-2.6l1.495 11.687h3.38zm9.485-.195v-2.47h-2.47v2.47h2.47zm13.866-4.888v-2.262c-2.665-.208-4.2-2.028-4.2-3.484v-.988h-2.924v.988c0 1.456-1.47 3.276-4.2 3.484v2.262c2.64-.065 4.68-1.261 5.656-2.717.975 1.456 3.016 2.652 5.668 2.717zm.312 5.083v-2.34h-2.301v-2.457h-2.64v2.457h-2.08v-2.457h-2.638v2.457h-2.301v2.34h11.96zm12.227-7.501v-1.95h-8.32v-2.496h-2.795v4.446H132.1zm.39 3.042v-2.145h-11.96v2.145h11.96zm-.26 4.654v-2.08h-8.385v-1.976h-2.86v4.056h11.245zm5.507-3.341c0-1.898.026-2.392.767-2.951 1.183-.897 1.612-1.56 1.612-2.379v-.767c0-1.989-1.56-2.704-3.549-2.704-1.989 0-3.549.715-3.549 2.704v1.248h2.73v-.819c0-.507.312-.78.82-.78.506 0 .818.208.818.715v.403c0 .312-.065.637-.988 1.248-1.274.832-1.13 1.924-1.13 4.082h2.47zm0 3.341v-2.444h-2.47v2.444h2.47z"/></g></svg><svg width="176" height="79" viewBox="-4 -4 176 79" id="title" x="229" y="277" xmlns="http://www.w3.org/2000/svg"><path fill="#FFF" d="M30.144 29.888V.16h-5.6v9.408h-6.016v5.792h6.016v14.528h5.6zm6.976 0V.16h-5.728v29.728h5.728zm-28.8-.96l15.424-1.6v-5.792l-8.992.896V.96H8.32v27.968zm59.448.96V.16h-7.2v29.728h7.2zm-19.424-.48c4.992 0 9.088-3.2 9.088-7.904V8.544c0-4.704-4.096-7.904-9.088-7.904-4.96 0-9.024 3.2-9.024 7.904v12.96c0 4.704 4.064 7.904 9.024 7.904zM48.44 24c-1.376 0-2.304-1.056-2.304-2.176v-13.6c0-1.056.928-2.208 2.304-2.208s2.336 1.152 2.336 2.208v13.6c0 1.12-.96 2.176-2.336 2.176zm50.328 5.888V.16h-7.04v11.104H87.44V.928h-6.624v6.848h-3.744V.928H70.32v28l10.496-1.152v1.152h6.624V17.056h4.288v12.832h7.04zM77.072 22.72v-9.536h3.744v9.152l-3.744.384zM108.248 16c3.712 0 7.328-2.176 7.328-5.856V6.016c0-3.68-3.616-5.856-7.328-5.856s-7.328 2.176-7.328 5.856v4.128c0 3.68 3.616 5.856 7.328 5.856zm14.336.512V10.88h1.408v5.632h5.728V.16h-5.728v5.28h-1.408V.16h-5.6v16.352h5.6zm-14.272-4.992c-.864 0-1.728-.672-1.728-1.536V6.176c0-.864.864-1.536 1.728-1.536s1.728.672 1.728 1.536v3.808c0 .864-.864 1.536-1.728 1.536zm21.408 18.368V17.152h-6.752v1.472h-13.92v-1.472h-6.784v12.736l20.704-.832v.832h6.752zm-20.672-4.928v-1.92h13.92v1.472l-13.92.448zm45.528-12.992c2.944 0 5.408-2.656 5.408-5.952S157.52 0 154.576 0h-17.12c-2.976 0-5.376 2.72-5.376 6.016s2.4 5.952 5.376 5.952h17.12zm-2.016-5.024h-13.12c-.48 0-.832-.448-.832-.96 0-.48.352-.96.832-.96h13.12c.48 0 .832.48.832.96 0 .512-.352.96-.832.96zm8.16 12v-5.152h-29.44v5.152h29.44zm-.64 10.944V25.12h-20.736v-4.864H132.4v9.632h27.68zm-131.312 40V40.16h-7.2v29.728h7.2zm-9.024-.96v-6.912c-2.976-1.28-6.464-4.48-6.56-13.888v-1.12h6.24V41.12H.32v5.888h6.24v1.12C6.464 57.536 2.976 60.736 0 62.016v6.912c3.872-1.184 7.52-3.776 9.856-8.256 2.4 4.512 6.016 7.072 9.888 8.256zm38.232-18.592L59.16 40.16H31.64v4.928H51.8l-.736 5.248h6.912zm2.144 6.016v-5.184H30.68v5.184h29.44zM59 69.888V58.112H31.8v11.776l20.416-.832v.832H59zM38.584 64.96v-2.368h13.632v1.92l-13.632.448zm59.856-7.264v-6.688h3.328v-5.6H98.44V40.16H91.4v17.536h7.04zm-10.432-.928V40.48h-6.624v3.168h-3.712V40.48H70.92v16.288h17.088zM81.384 52h-3.712v-3.584h3.712V52zm11.424 18.048c3.52 0 6.272-2.528 6.272-5.856 0-3.424-2.752-5.856-6.272-5.856H78.152c-3.456 0-6.208 2.432-6.208 5.856 0 3.328 2.752 5.856 6.208 5.856h14.656zm-2.112-4.832H80.232c-.768 0-1.216-.384-1.216-1.024s.448-1.056 1.216-1.056h10.464c.896 0 1.344.416 1.344 1.056 0 .64-.448 1.024-1.344 1.024zm39.224-14.88v-4.672c-6.784 0-10.304-2.272-10.304-5.344v-.48h-7.2v.48c0 3.072-3.52 5.344-10.336 5.344v4.672c7.072 0 11.392-1.536 13.888-4.416 2.496 2.88 6.752 4.416 13.952 4.416zm.8 7.552v-4.8h-11.36v-3.456h-6.752v3.456H101.28v4.8h29.44zm-6.048 12.16c2.944 0 5.408-2.4 5.408-5.376 0-2.944-2.464-5.408-5.408-5.408h-17.376c-2.976 0-5.376 2.464-5.376 5.408 0 2.976 2.4 5.376 5.376 5.376h17.376zm-1.92-4.672h-13.664c-.416 0-.736-.384-.736-.8 0-.416.32-.8.736-.8h13.664c.416 0 .736.384.736.8 0 .416-.32.8-.736.8zm44.168-13.728v-4.512c-6.4.096-9.28-.96-10.112-2.4h9.792V40.16h-27.2v4.576h9.76c-.832 1.408-3.68 2.496-10.08 2.4v4.512c7.264 0 11.616-1.216 13.92-3.616 2.304 2.4 6.656 3.616 13.92 3.616zm-5.248 18.4c2.944 0 5.408-2.4 5.408-5.376 0-2.944-2.464-5.408-5.408-5.408h-5.312V57.28h11.36v-4.8h-29.44v4.8h11.328v1.984h-5.312c-2.976 0-5.376 2.464-5.376 5.408 0 2.976 2.4 5.376 5.376 5.376h17.376zm-1.92-4.672h-13.664c-.416 0-.736-.384-.736-.8 0-.416.32-.8.736-.8h13.664c.416 0 .736.384.736.8 0 .416-.32.8-.736.8z"/></svg><svg width="316" height="36" viewBox="-4 -4 316 36" id="title_landscape" y="177" xmlns="http://www.w3.org/2000/svg"><path fill="#FFF" d="M20.364 28V.848h-5.318v8.593H9.333v5.29h5.713V28h5.318zm5.939 0V.848h-5.09V28h5.09zM0 27.152l14.424-1.505V20.2l-8.409.842V.848H0v26.304zM55.152 28V.848h-6.788V28h6.788zm-17.849-.848c4.678 0 8.515-2.926 8.515-7.227V8.075c0-4.3-3.837-7.227-8.515-7.227-4.647 0-8.455 2.926-8.455 7.227v11.85c0 4.3 3.808 7.227 8.455 7.227zm-.409-4.243a2.068 2.068 0 01-2.106-2.053V8.023c0-.997.848-2.084 2.106-2.084 1.259 0 2.136 1.087 2.136 2.084v12.833c0 1.057-.877 2.053-2.136 2.053zM84 28V.848h-6.51V10.99h-3.964V1.55h-6.124v6.254H63.94V1.55h-6.243v25.573l9.705-1.052v1.052h6.124V16.28h3.965V28H84zm-20.364-6.788v-8.485h3.394v8.143l-3.394.342zm29.182-5.94c3.439 0 6.788-1.98 6.788-5.332V6.181c0-3.351-3.35-5.333-6.788-5.333S86.03 2.83 86.03 6.181v3.76c0 3.35 3.35 5.332 6.788 5.332zm12.86.85V10.86h1.313v5.26h5.342V.848h-5.342V5.78h-1.313V.848h-5.223v15.273h5.223zm-12.86-5.092c-.848 0-1.697-.663-1.697-1.515V5.758c0-.853.849-1.516 1.697-1.516.849 0 1.697.663 1.697 1.516v3.757c0 .852-.848 1.515-1.697 1.515zM112.333 28V16.121h-6.26v1.373H93.169v-1.373h-6.29V28l19.196-.776V28h6.26zm-19.515-4.242V22.06h12.727v1.3l-12.727.397zm42.582-11.88c2.686 0 4.933-2.447 4.933-5.485 0-3.038-2.247-5.545-4.933-5.545h-15.617c-2.715 0-4.904 2.507-4.904 5.545s2.19 5.486 4.904 5.486H135.4zm-1.77-5.09h-12.048c-.44 0-.764-.396-.764-.849 0-.424.323-.848.764-.848h12.048c.44 0 .764.424.764.848 0 .453-.323.849-.764.849zm7.552 11.03v-5.09H114.03v5.09h27.152zM140.333 28v-4.62h-19.069v-4.713h-6.385V28h25.454zm37.334 0V.848h-6.788V28h6.788zm-8.485-.848v-6.328c-2.814-1.171-6.111-4.1-6.202-12.712V7.087h5.9v-5.39h-18.062v5.39h5.9v1.025c-.092 8.612-3.39 11.54-6.203 12.712v6.328c3.66-1.084 7.11-3.457 9.318-7.558 2.27 4.13 5.688 6.474 9.349 7.558zm35.39-16.97l1.095-9.334h-25.455v4.52h18.647l-.68 4.814h6.393zm1.943 5.94V11.03h-27.151v5.091h27.151zM205.667 28V16.97h-25.455V28l19.106-.78V28h6.349zM187 23.758v-2.546h12.727v2.064L187 23.758zm55.55-6.788v-6.15h2.995V5.673h-2.995V.848h-6.338V16.97h6.338zm-9.732-.849V.848h-6.25V3.82h-3.501V.849h-6.37V16.12h16.121zm-5.94-4.242h-3.393V8.485h3.394v3.394zM237.118 28c3.302 0 5.883-2.38 5.883-5.515 0-3.225-2.581-5.515-5.883-5.515H223.37c-3.242 0-5.824 2.29-5.824 5.515 0 3.134 2.582 5.515 5.824 5.515h13.748zm-2.13-4.242h-9.545c-.7 0-1.109-.314-1.109-.836s.409-.861 1.11-.861h9.543c.818 0 1.226.339 1.226.861s-.408.836-1.226.836zm36.861-13.576V6.027c-6.202 0-9.42-2.02-9.42-4.752V.848h-6.584v.427c0 2.732-3.218 4.752-9.45 4.752v4.155c6.466 0 10.416-1.366 12.698-3.927 2.282 2.561 6.173 3.927 12.756 3.927zm.849 6.788v-4.44H262.22V9.333h-6.227v3.197h-10.448v4.44h27.152zm-5.9 11.03c2.75 0 5.051-2.266 5.051-5.076 0-2.78-2.301-5.106-5.05-5.106h-16.231c-2.78 0-5.022 2.327-5.022 5.106 0 2.81 2.242 5.076 5.022 5.076h16.23zm-1.59-4.242h-13.02c-.397 0-.702-.408-.702-.849s.305-.848.701-.848h13.022c.396 0 .701.407.701.848s-.305.849-.701.849zm41.49-12.728V6.698c-5.852.092-8.485-.922-9.246-2.304h8.953V0h-24.869v4.394h8.924c-.761 1.352-3.365 2.396-9.217 2.304v4.332c6.642 0 10.621-1.167 12.728-3.472 2.106 2.305 6.085 3.472 12.727 3.472zM301.967 28c2.716 0 4.988-2.202 4.988-4.933 0-2.702-2.272-4.963-4.987-4.963h-4.9v-1.82h10.477v-4.405h-27.151v4.404h10.447v1.821h-4.899c-2.744 0-4.958 2.261-4.958 4.963 0 2.73 2.214 4.933 4.958 4.933h16.026zm-1.91-4.242h-13.022c-.397 0-.702-.408-.702-.849s.305-.848.702-.848h13.021c.397 0 .702.407.702.848s-.305.849-.702.849z"/></svg><svg width="761" height="77" viewBox="-4 -4 761 77" id="title_pc" xmlns="http://www.w3.org/2000/svg"><path fill="#FFF" d="M49.424 67.952V1.064h-12.6v21.168H23.288v13.032h13.536v32.688h12.6zm15.696 0V1.064H52.232v66.888H65.12zm-64.8-2.16l34.704-3.6V49.16l-20.232 2.016V2.864H.32v62.928zm134.008 2.16V1.064h-16.2v66.888h16.2zm-43.704-1.08c11.232 0 20.448-7.2 20.448-17.784v-29.16c0-10.584-9.216-17.784-20.448-17.784-11.16 0-20.304 7.2-20.304 17.784v29.16c0 10.584 9.144 17.784 20.304 17.784zm.216-12.168c-3.096 0-5.184-2.376-5.184-4.896v-30.6c0-2.376 2.088-4.968 5.184-4.968s5.256 2.592 5.256 4.968v30.6c0 2.52-2.16 4.896-5.256 4.896zm113.488 13.248V1.064h-15.84v24.984h-9.648V2.792h-14.904V18.2h-8.424V2.792H140.32v63l23.616-2.592v2.592h14.904V39.08h9.648v28.872h15.84zm-48.816-16.128V30.368h8.424V50.96l-8.424.864zm69.896-15.12c8.352 0 16.488-4.896 16.488-13.176V14.24c0-8.28-8.136-13.176-16.488-13.176S208.92 5.96 208.92 14.24v9.288c0 8.28 8.136 13.176 16.488 13.176zm32.256 1.152V25.184h3.168v12.672h12.888V1.064h-12.888v11.88h-3.168V1.064h-12.6v36.792h12.6zm-32.112-11.232c-1.944 0-3.888-1.512-3.888-3.456V14.6c0-1.944 1.944-3.456 3.888-3.456s3.888 1.512 3.888 3.456v8.568c0 1.944-1.944 3.456-3.888 3.456zm48.168 41.328V39.296h-15.192v3.312h-31.32v-3.312h-15.264v28.656l46.584-1.872v1.872h15.192zm-46.512-11.088v-4.32h31.32v3.312l-31.32 1.008zm102.688-29.232c6.624 0 12.168-5.976 12.168-13.392 0-7.416-5.544-13.536-12.168-13.536h-38.52c-6.696 0-12.096 6.12-12.096 13.536 0 7.416 5.4 13.392 12.096 13.392h38.52zm-4.536-11.304h-29.52c-1.08 0-1.872-1.008-1.872-2.16 0-1.08.792-2.16 1.872-2.16h29.52c1.08 0 1.872 1.08 1.872 2.16 0 1.152-.792 2.16-1.872 2.16zm18.36 27V31.736h-66.24v11.592h66.24zm-1.44 24.624V57.224h-46.656V46.28H280v21.672h62.28zm90.248 0V1.064h-16.2v66.888h16.2zm-20.304-2.16V50.24c-6.696-2.88-14.544-10.08-14.76-31.248v-2.52h14.04V3.224H368.52v13.248h14.04v2.52c-.216 21.168-8.064 28.368-14.76 31.248v15.552c8.712-2.664 16.92-8.496 22.176-18.576 5.4 10.152 13.536 15.912 22.248 18.576zm86.272-41.832l2.664-22.896h-61.92v11.088h45.36l-1.656 11.808h15.552zm4.824 13.536V25.832h-66.24v11.664h66.24zm-2.52 30.456V41.456h-61.2v26.496l45.936-1.872v1.872H500.8zm-45.936-11.088v-5.328h30.672v4.32l-30.672 1.008zM590.04 40.52V25.472h7.488v-12.6h-7.488V1.064H574.2V40.52h15.84zm-23.472-2.088V1.784h-14.904v7.128h-8.352V1.784H528.12v36.648h38.448zm-14.904-10.728h-8.352V19.64h8.352v8.064zm25.704 40.608c7.92 0 14.112-5.688 14.112-13.176 0-7.704-6.192-13.176-14.112-13.176h-32.976c-7.776 0-13.968 5.472-13.968 13.176 0 7.488 6.192 13.176 13.968 13.176h32.976zm-4.752-10.872h-23.544c-1.728 0-2.736-.864-2.736-2.304s1.008-2.376 2.736-2.376h23.544c2.016 0 3.024.936 3.024 2.376s-1.008 2.304-3.024 2.304zm88.504-33.48V13.448c-15.264 0-23.184-5.112-23.184-12.024V.344h-16.2v1.08c0 6.912-7.92 12.024-23.256 12.024V23.96c15.912 0 25.632-3.456 31.248-9.936 5.616 6.48 15.192 9.936 31.392 9.936zm1.8 16.992v-10.8h-25.56v-7.776h-15.192v7.776H596.68v10.8h66.24zm-13.608 27.36c6.624 0 12.168-5.4 12.168-12.096 0-6.624-5.544-12.168-12.168-12.168h-39.096c-6.696 0-12.096 5.544-12.096 12.168 0 6.696 5.4 12.096 12.096 12.096h39.096zm-4.32-10.512h-30.744c-.936 0-1.656-.864-1.656-1.8s.72-1.8 1.656-1.8h30.744c.936 0 1.656.864 1.656 1.8s-.72 1.8-1.656 1.8zM751.12 26.912V16.76c-14.4.216-20.88-2.16-22.752-5.4H750.4V1.064h-61.2V11.36h21.96c-1.872 3.168-8.28 5.616-22.68 5.4v10.152c16.344 0 26.136-2.736 31.32-8.136 5.184 5.4 14.976 8.136 31.32 8.136zm-11.808 41.4c6.624 0 12.168-5.4 12.168-12.096 0-6.624-5.544-12.168-12.168-12.168H727.36v-4.464h25.56v-10.8h-66.24v10.8h25.488v4.464h-11.952c-6.696 0-12.096 5.544-12.096 12.168 0 6.696 5.4 12.096 12.096 12.096h39.096zm-4.32-10.512h-30.744c-.936 0-1.656-.864-1.656-1.8s.72-1.8 1.656-1.8h30.744c.936 0 1.656.864 1.656 1.8s-.72 1.8-1.656 1.8z"/></svg></svg>