<?xml version="1.0" encoding="utf-8"?>
<!-- Generator: Adobe Illustrator 24.3.0, SVG Export Plug-In . SVG Version: 6.00 Build 0)  -->
<svg version="1.1" id="Layer_1" xmlns="http://www.w3.org/2000/svg" xmlns:xlink="http://www.w3.org/1999/xlink" x="0px" y="0px"
	 viewBox="0 0 480 270" style="enable-background:new 0 0 480 270;" xml:space="preserve">
<style type="text/css">
	.st0{fill:#3F68AA;}
	.st1{fill:#FFFFFF;}
	.st2{fill:#0545B1;}
	.st3{clip-path:url(#SVGID_2_);}
	.st4{clip-path:url(#SVGID_2_);fill:#00BBED;}
	.st5{clip-path:url(#SVGID_2_);fill:#FFFFFF;}
	.st6{clip-path:url(#SVGID_2_);fill:#1AC62F;}
	.st7{clip-path:url(#SVGID_2_);fill:#F2338A;}
	.st8{clip-path:url(#SVGID_2_);fill:#1A1919;}
</style>
<g>
	<rect class="st0" width="480" height="270"/>
	<g>
		<path class="st1" d="M304.74,135.24c-0.33-6.59-1.01-13.46-2.01-20.4l-0.26-1.77c-0.27-1.8-0.85-3.99-1.29-5.5
			c-3.06-10.67-13.73-15.37-14.92-15.86c-3.3-1.45-9.4-3.13-10.18-3.34c-5.08-1.29-10.29-2.31-15.52-3.05l10.99-5
			c2.62-0.99,4.72-3.03,5.77-5.59c1.08-2.64,0.97-5.64-0.3-8.22c-1.68-3.4-5.1-5.51-8.91-5.51c-1.77,0-3.53,0.47-5.2,1.42
			l-22.84,14.69l-11.95-9.62c-1.79-1.6-4.1-2.49-6.51-2.49c-2.98,0-5.8,1.32-7.82,3.73c-1.8,2.26-2.54,5.34-1.97,8.24
			c0.56,2.84,2.29,5.26,4.77,6.64l3.32,1.59c-5.97,0.77-11.51,1.82-16.49,3.13c-6.01,1.59-9.1,2.98-9.89,3.36
			c-6.44,2.94-11.17,7.58-13.68,13.41c-0.25,0.59-0.58,1.37-0.85,2.24c-0.17,0.5-1.03,3.12-1.49,5.84
			c-1.67,9.75-2.49,20.19-2.49,31.93c0,13.89,1.37,27.64,4.08,40.87c1.16,5.69,3.62,8.96,4.59,10.07c3.4,4.37,8.23,7.44,13.73,8.68
			l0.93,0.19C211.97,207.63,226,209,240,209c14.06,0,28.14-1.38,41.84-4.1l0.76-0.15c9.2-2.02,16.37-9.29,18.3-18.62
			c2.72-13.39,4.1-27.16,4.1-40.95C305,142,304.91,138.75,304.74,135.24z M263.15,63.12L263.15,63.12L263.15,63.12L263.15,63.12z"/>
		<g>
			<path class="st2" d="M271.86,69.07c1.16,2.34-0.01,5.05-2.47,5.9L243.83,86.6c-3.01,1.36-5.04,1.1-7.92-0.18l-16.52-7.83
				c-2.29-1.28-2.57-4.42-1.11-6.25l0,0c1.55-1.85,4.33-2.13,6.08-0.48l12.72,10.24c1.38,1.14,2.83,1.2,3.97,0.94
				c0.47-0.1,0.85-0.31,1.48-0.66l23.35-15.02C268.03,66.14,270.76,66.84,271.86,69.07L271.86,69.07z"/>
			<g>
				<defs>
					<path id="SVGID_1_" d="M184.72,184.84c-2.62-12.81-3.96-26.08-3.96-39.67c0-10.54,0.68-20.92,2.41-30.99
						c0.43-2.52,1.29-5.01,1.29-5.01c1.81-5.77,6.08-9.77,11.51-12.24c0,0,2.75-1.37,8.92-3c16.75-4.43,34.71-4.3,34.71-4.3l0.81,0
						c11.83,0.03,23.3,1.55,34.27,4.33c0,0,6.37,1.74,9.33,3.05c0,0,9.2,3.63,11.64,12.11c0.09,0.31,0.86,2.93,1.14,4.82
						c1.54,10.19,2.46,20.61,2.46,31.24c0,13.63-1.37,26.94-3.99,39.8c-0.01,0.03-0.01,0.06-0.02,0.08
						c-1.44,7-6.91,12.53-13.87,14.06c-0.22,0.04-0.43,0.09-0.65,0.13c-13.17,2.62-26.78,3.99-40.72,3.99
						c-13.88,0-27.44-1.37-40.56-3.96c-0.3-0.06-0.6-0.12-0.91-0.18c-4.22-0.95-7.89-3.37-10.43-6.7
						C188.11,192.39,185.76,189.92,184.72,184.84z"/>
				</defs>
				<clipPath id="SVGID_2_">
					<use xlink:href="#SVGID_1_"  style="overflow:visible;"/>
				</clipPath>
				<g class="st3">
					<path class="st2" d="M304.53,116.47c-1.81-13.44-4.9-21.1-22.36-25.06c-15.74-3.57-27.15-4.27-36.49-4.69
						c-1.99-0.09-3.98-0.09-5.96,0c-9.34,0.42-20.75,1.12-36.49,4.69c-17.46,3.96-20.55,11.63-22.36,25.06
						c-1.78,13.24-1.64,29.14-1.63,29.61c0,0.47-0.14,16.37,1.63,29.61c1.81,13.44,4.9,21.1,22.36,25.06
						c15.74,3.57,27.15,3.33,36.49,3.75c1.99,0.09,3.98,0.09,5.96,0c9.34-0.42,20.75-0.18,36.49-3.75
						c17.46-3.96,20.55-11.63,22.36-25.06c1.78-13.24,1.64-29.14,1.63-29.61C306.17,145.6,306.31,129.7,304.53,116.47z"/>
				</g>
				<path class="st4" d="M260.36,128.26c-0.18-4.63-0.27-9.21-0.23-13.8c0.06-6.26,4.58-8.75,4.58-8.75c3-1.84,7.01-2.19,10.56-0.64
					c5.42,2.36,12.43,5.99,12.43,5.99c4.03,2.12,7.42,3.93,11.64,6.63c0.02,0.01,0.04,0.02,0.06,0.03c0.22,0.12,0.43,0.24,0.64,0.37
					c4.51,2.8,6.15,8.66,3.64,13.44c-0.82,1.55-1.97,2.81-3.33,3.72c-0.01,0.01-0.02,0.01-0.03,0.02
					c-3.95,2.69-7.38,5.25-11.45,7.84c-6.57,4.17-10.69,6.13-10.69,6.13c-2.93,1.68-7.95,2.44-11.44,0.69
					c-5.28-2.64-5.56-8.9-5.56-8.9S260.65,135.91,260.36,128.26z"/>
				<path class="st5" d="M267.4,164.66c-13.25,12.35-41.99,12.36-54.88,0.01c-1.03-1-2.69-0.95-3.67,0.09
					c-1.01,1.03-0.95,2.69,0.07,3.68c14.89,14.22,46.76,14.24,62,0.02c1.08-0.98,1.13-2.63,0.16-3.68
					C270.09,163.74,268.46,163.67,267.4,164.66z"/>
				<path class="st6" d="M181.95,148.05"/>
				<path class="st6" d="M256.8,144.09c0-0.04,0-0.08,0-0.12l-0.07-0.78l-1.77-19.55l-0.05-0.55c-0.05-0.43-0.13-0.85-0.23-1.26
					c-0.96-3.84-4.11-6.81-8.04-7.49c-0.54-0.09-1.1-0.15-1.67-0.15h-0.13h-9.77h-0.13c-0.49,0-0.98,0.04-1.45,0.11
					c-4.03,0.61-7.28,3.61-8.26,7.52c-0.08,0.33-0.15,0.67-0.2,1.01l-0.1,1.04l-1.77,19.43l-0.04,0.45
					c-0.01,0.11-0.01,0.22-0.02,0.33c0,0.13-0.01,0.25-0.01,0.38c0,4.68,3.18,8.62,7.5,9.76c0.82,0.22,1.67,0.33,2.55,0.33h0.05
					h13.52h0.05c0.56,0,1.11-0.05,1.64-0.14c4.77-0.8,8.41-4.95,8.41-9.96C256.81,144.34,256.8,144.22,256.8,144.09z"/>
				<path class="st7" d="M219.11,133.33c-3.86,12.9-15.4,19.47-28.17,17.26c-13.26-2.29-22.82-21.06-16.22-32.62
					c5.65-9.91,17.99-17.24,30.85-13.28C219.21,108.89,223.01,120.3,219.11,133.33z"/>
				<ellipse class="st8" cx="278.9" cy="127.15" rx="8.5" ry="8.51"/>
				<ellipse class="st8" cx="199.81" cy="127.15" rx="8.5" ry="8.51"/>
			</g>
		</g>
	</g>
</g>
</svg>
